# xmcd
#
# Track frame offsets:
#	150
#	12932
#	33549
#	45822
#	62492
#	78944
#	95048
#	113936
#	131236
#	146466
#	163663
#	181480
#
# Disc length: 4742 seconds
#
# Revision: 1
# Processed by: cddbd v1.5.1PL2 Copyright (c) Steve Scherf et al.
# Submitted via: EasyCDDAExtractor 6.5.0.1
#
DISCID=9b12840c
DTITLE=Joe Diffie
DYEAR=1900
DGENRE=
TTITLE0=Third Rock From The Sun
TTITLE1=John Deere Green
TTITLE2=Texas Size Heartache
TTITLE3=Ships That Don't Come In
TTITLE4=Pickup Man
TTITLE5=So Help Me Girl
TTITLE6=Poor Me
TTITLE7=Honky Tonk Attitude
TTITLE8=Home
TTITLE9=Prop Me Up Beside The Jukebox (If I Die)
TTITLE10=Bigger Than The Beatles
TTITLE11=Hurt Me All The Time
EXTD=
EXTT0=
EXTT1=
EXTT2=
EXTT3=
EXTT4=
EXTT5=
EXTT6=
EXTT7=
EXTT8=
EXTT9=
EXTT10=
EXTT11=
PLAYORDER=
